<svg xmlns="http://www.w3.org/2000/svg" version="1.1" preserveAspectRatio="xMidYMid meet" viewBox="20.56 41.09 343.03 304.72">
 <g>
  <title>Layer 1</title>
  <path id="path0" d="m93.084,42.252c-9.848,1.668 -14.362,3.014 -22.444,6.693c-12.8,5.828 -27.348,19.121 -35.008,31.99c-2.364,3.971 -6.725,12.633 -7.717,15.327c-2.329,6.327 -3.596,10.395 -4.542,14.579c-0.558,2.467 -1.16,4.991 -1.339,5.608c-0.698,2.407 -1.473,12.59 -1.476,19.394c-0.005,9.77 0.552,15.911 2.458,27.148c1.153,6.8 1.45,8.289 2.492,12.523c0.608,2.467 1.331,5.495 1.609,6.729c2.787,12.405 12.445,35.147 21.027,49.517c10.744,17.988 19.673,29.706 35.05,45.997c9.487,10.051 20.175,20.15 28.956,27.36c2.158,1.772 5.532,4.543 7.497,6.156c8.63,7.086 19.25,14.34 20.165,13.774c3.035,-1.875 -4.734,-17.874 -12.98,-26.729c-3.879,-4.167 -5.116,-5.31 -17.527,-16.2c-19.789,-17.365 -26.932,-26.93 -33.686,-45.109c-9.236,-24.857 -11.909,-73.282 -4.373,-79.21c3.88,-3.052 9.327,-0.815 11.936,4.902c2.153,4.719 4.021,15.581 6.19,35.991c0.848,7.983 2.115,13.775 4.537,20.747c6.572,18.915 25.302,37.856 31.402,31.757c2.55,-2.551 0.621,-6.633 -10.586,-22.411c-6.292,-8.857 -7.468,-15.191 -3.571,-19.243c5.519,-5.74 14.599,-1.628 29.62,13.412c20.712,20.738 33.275,40.067 39.871,61.345c4,12.901 4.983,33.504 2.533,53.072c-1.143,9.132 -1.847,8.543 10.002,8.362c10.816,-0.166 10.012,0.906 8.64,-11.527c-0.871,-7.901 -0.567,-28.458 0.529,-35.701c2.585,-17.088 7.321,-29.086 18.224,-46.169c12.032,-18.851 34.467,-41.467 44.207,-44.563c9.804,-3.117 15.04,4.515 9.939,14.487c-1.668,3.26 -4.989,8.291 -9.614,14.562c-6.81,9.234 -7.427,15.141 -1.58,15.141c8.221,0 23.997,-18.261 28.744,-33.271c2.086,-6.596 2.867,-11.177 5.095,-29.907c1.41,-11.853 2.875,-20.613 3.937,-23.551c4.198,-11.604 14.364,-12.452 16.413,-1.369c0.22,1.188 0.51,2.339 0.646,2.559c0.495,0.8 0.169,26.257 -0.408,31.952c-2.475,24.402 -8.544,45.521 -16.347,56.879c-7.006,10.197 -14.372,17.988 -28.483,30.121c-17.836,15.337 -24.224,23.304 -26.933,33.594c-1.319,5.011 -1.071,4.967 8.361,-1.488c4.271,-2.923 16.931,-12.808 19.469,-15.202c1.131,-1.066 3.317,-3.021 4.86,-4.344c6.743,-5.784 15.119,-13.765 19.439,-18.522c2.57,-2.83 5.532,-6.085 6.581,-7.233c19.905,-21.769 38.396,-51.131 46.722,-74.192c4.794,-13.278 8.266,-26.68 10.084,-38.924c2.988,-20.125 2.4,-41.232 -1.579,-56.635c-0.717,-2.776 -1.457,-5.665 -1.645,-6.42c-1.25,-5.03 -8.216,-18.418 -12.719,-24.444c-6.122,-8.194 -19.232,-19.577 -25.128,-21.819c-0.455,-0.172 -1.667,-0.8 -2.693,-1.395c-2.086,-1.208 -8.913,-4.002 -11.212,-4.589c-0.822,-0.21 -3.262,-0.84 -5.421,-1.399c-7.312,-1.897 -24.787,-1.461 -33.084,0.825c-9.85,2.715 -12.428,3.67 -19.602,7.266c-16.601,8.322 -30.933,21.276 -50.163,45.342c-3.695,4.624 -6.179,3.55 -12.665,-5.474c-12.319,-17.139 -27.223,-31.399 -40.747,-38.984c-16.241,-9.108 -33.754,-12.171 -51.963,-9.087m128.108,101.873c12.96,2.92 19.53,14.962 17.126,31.389c-2.393,16.343 -16.996,34.715 -39.253,49.38c-6.311,4.159 -6.425,4.154 -13.644,-0.651c-5.486,-3.65 -7.004,-4.846 -12.683,-9.989c-25.091,-22.72 -32.788,-46.895 -20.042,-62.945c8.936,-11.252 29.072,-9.022 37.976,4.205c1.538,2.285 2.312,2.295 4.234,0.054c8.437,-9.84 16.951,-13.546 26.286,-11.443" fill="#ee9d83" fill-rule="evenodd"/>
 </g>

</svg>